<svg width="20" height="21" viewBox="0 0 20 21" fill="none" xmlns="http://www.w3.org/2000/svg">
<g id="search-line 1" clip-path="url(#clip0_1_8)">
<path id="Vector" d="M15.0258 14.3475L18.595 17.9159L17.4158 19.095L13.8475 15.5259C12.5198 16.5902 10.8683 17.1691 9.16666 17.1667C5.02666 17.1667 1.66666 13.8067 1.66666 9.66669C1.66666 5.52669 5.02666 2.16669 9.16666 2.16669C13.3067 2.16669 16.6667 5.52669 16.6667 9.66669C16.6691 11.3684 16.0902 13.0198 15.0258 14.3475ZM13.3542 13.7292C14.4118 12.6416 15.0024 11.1837 15 9.66669C15 6.44335 12.3892 3.83335 9.16666 3.83335C5.94333 3.83335 3.33333 6.44335 3.33333 9.66669C3.33333 12.8892 5.94333 15.5 9.16666 15.5C10.6837 15.5024 12.1416 14.9118 13.2292 13.8542L13.3542 13.7292Z" fill="black"/>
</g>
<defs>
<clipPath id="clip0_1_8">
<rect width="20" height="20" fill="white" transform="translate(0 0.5)"/>
</clipPath>
</defs>
</svg>
